<?xml version="1.0" encoding="UTF-8" standalone="no"?>
<!-- Generator: Adobe Illustrator 13.0.0, SVG Export Plug-In . SVG Version: 6.00 Build 14948)  -->
<svg
   xmlns:dc="http://purl.org/dc/elements/1.1/"
   xmlns:cc="http://creativecommons.org/ns#"
   xmlns:rdf="http://www.w3.org/1999/02/22-rdf-syntax-ns#"
   xmlns:svg="http://www.w3.org/2000/svg"
   xmlns="http://www.w3.org/2000/svg"
   xmlns:sodipodi="http://sodipodi.sourceforge.net/DTD/sodipodi-0.dtd"
   xmlns:inkscape="http://www.inkscape.org/namespaces/inkscape"
   version="1.1"
   id="svg2"
   sodipodi:version="0.32"
   sodipodi:docname="hxmpp.svg"
   inkscape:version="0.46"
   inkscape:output_extension="org.inkscape.output.svg.inkscape"
   x="0px"
   y="0px"
   width="744.094px"
   height="1052.361px"
   viewBox="0 0 744.094 1052.361"
   enable-background="new 0 0 744.094 1052.361"
   xml:space="preserve"><metadata
   id="metadata74"><rdf:RDF><cc:Work
       rdf:about=""><dc:format>image/svg+xml</dc:format><dc:type
         rdf:resource="http://purl.org/dc/dcmitype/StillImage" /></cc:Work></rdf:RDF></metadata>
<defs
   id="defs3">
	
	
		<inkscape:perspective
   inkscape:vp_x="0 : 526.18109 : 1"
   inkscape:vp_y="0 : 1000 : 0"
   sodipodi:type="inkscape:persp3d"
   inkscape:vp_z="744.09448 : 526.18109 : 1"
   inkscape:persp3d-origin="372.04724 : 350.78739 : 1"
   id="perspective10">
		</inkscape:perspective>
	
		<inkscape:perspective
   inkscape:vp_x="0 : 526.18109 : 1"
   inkscape:vp_y="0 : 1000 : 0"
   sodipodi:type="inkscape:persp3d"
   inkscape:vp_z="744.09448 : 526.18109 : 1"
   inkscape:persp3d-origin="372.04724 : 350.78739 : 1"
   id="perspective2561">
		</inkscape:perspective>
</defs>
<sodipodi:namedview
   showgrid="false"
   inkscape:document-units="px"
   inkscape:cx="325.05968"
   objecttolerance="10"
   pagecolor="#ffffff"
   inkscape:window-height="981"
   gridtolerance="10000"
   inkscape:pageopacity="0.0"
   inkscape:pageshadow="2"
   inkscape:window-width="1680"
   guidetolerance="10"
   inkscape:window-y="24"
   inkscape:window-x="0"
   borderopacity="1.0"
   inkscape:cy="812.33686"
   bordercolor="#666666"
   inkscape:current-layer="svg2"
   inkscape:zoom="1.7096733"
   inkscape:guide-bbox="true"
   showguides="true"
   id="base">
	
</sodipodi:namedview>
<g
   id="flowRoot2387"
   transform="translate(0,240)">
</g>











<path
   d="M 150.93999,149.35999 L 96.05199,149.35999 L 71.68499,106.70998 L 71.68499,149.35999 L 22.99999,149.35999 L 22.99999,20.906976 L 71.68499,20.906976 L 71.68499,63.809978 L 102.64399,63.809978 L 102.64399,20.906976 L 150.93999,20.906976 L 150.93999,149.35999 z"
   id="path52"
   style="fill:#f39708;stroke:#000000;stroke-width:6"
   inkscape:export-filename="/home/tong/projects/hxmpp/doc/hxmpp.png"
   inkscape:export-xdpi="300"
   inkscape:export-ydpi="300" />
<path
   d="M 231.66599,149.10499 L 223.18899,134.59098 L 214.70899,149.10499 L 159.47599,149.10499 L 195.18299,85.004979 L 158.96099,21.035976 L 214.58299,21.035976 L 222.93099,35.806976 L 231.41099,21.035976 L 287.02899,21.035976 L 250.93299,85.004979 L 287.15799,149.10499 L 231.66599,149.10499 L 231.66599,149.10499 z"
   id="path54"
   style="fill:#ffffff;stroke:#000000;stroke-width:6"
   inkscape:export-filename="/home/tong/projects/hxmpp/doc/hxmpp.png"
   inkscape:export-xdpi="300"
   inkscape:export-ydpi="300"
   sodipodi:nodetypes="cccccccccccccc" />
<g
   id="g56"
   transform="translate(-0.9450098,-477.04802)"
   inkscape:export-filename="/home/tong/projects/hxmpp/doc/hxmpp.png"
   inkscape:export-xdpi="300"
   inkscape:export-ydpi="300">
	<path
   d="M 368.689,626.408 L 344.281,583.633 L 344.153,626.409 L 295.725,626.409 L 295.725,540.858 L 319.747,540.858 L 295.596,498.08 L 412.234,498.08 L 484.941,626.409 L 368.689,626.409 L 368.689,626.408 z"
   id="path58"
   style="fill:#00b2ed;stroke:#000000;stroke-width:6"
   sodipodi:nodetypes="ccccccccccc" />
	<line
   x1="377.862"
   y1="539.44397"
   x2="427.43301"
   y2="626.20502"
   id="line60"
   style="fill:none;stroke:#000000;stroke-width:6" />
</g>
<g
   id="g62"
   transform="translate(-0.9450098,-477.04802)"
   inkscape:export-filename="/home/tong/projects/hxmpp/doc/hxmpp.png"
   inkscape:export-xdpi="300"
   inkscape:export-ydpi="300">
	<polygon
   points="561.214,544.535 534.672,498.08 412.444,498.08 485.277,626.326 540.047,626.278 510.215,573.367 561.214,544.535 "
   id="polygon64"
   style="fill:#00b2ed;stroke:#000000;stroke-width:6" />
	<line
   x1="527.37402"
   y1="563.448"
   x2="513.599"
   y2="539.62598"
   id="line66"
   style="fill:none;stroke:#000000;stroke-width:6" />
</g>
<g
   id="g68"
   transform="translate(-0.9450098,-477.04802)"
   inkscape:export-filename="/home/tong/projects/hxmpp/doc/hxmpp.png"
   inkscape:export-xdpi="300"
   inkscape:export-ydpi="300">
	<polygon
   points="683.734,544.535 657.192,498.08 534.963,498.08 607.796,626.326 662.567,626.278 632.735,573.367 683.734,544.535 "
   id="polygon70"
   style="fill:#00b2ed;stroke:#000000;stroke-width:6" />
	<line
   x1="649.89301"
   y1="563.448"
   x2="636.11902"
   y2="539.62598"
   id="line72"
   style="fill:#00b2ed;stroke:#000000;stroke-width:6" />
</g>
<path
   d="M 150.93999,299.35998 L 96.05199,299.35998 L 71.68499,256.70997 L 71.68499,299.35998 L 22.99999,299.35998 L 22.99999,170.90696 L 71.68499,170.90696 L 71.68499,213.80997 L 102.64399,213.80997 L 102.64399,170.90696 L 150.93999,170.90696 L 150.93999,299.35998 z"
   id="path2423"
   style="fill:#000000;stroke:none;stroke-width:6;fill-opacity:1"
   inkscape:export-filename="/home/tong/projects/hxmpp/doc/hxmpp.png"
   inkscape:export-xdpi="300"
   inkscape:export-ydpi="300" /><path
   d="M 231.66599,299.10498 L 223.18899,284.59097 L 214.70899,299.10498 L 159.47599,299.10498 L 195.18299,235.00497 L 158.96099,171.03596 L 214.58299,171.03596 L 222.93099,185.80696 L 231.41099,171.03596 L 287.02899,171.03596 L 250.93299,235.00497 L 287.15799,299.10498 L 231.66599,299.10498 L 231.66599,299.10498 z"
   id="path2425"
   style="fill:#000000;stroke:none;stroke-width:6;fill-opacity:1"
   inkscape:export-filename="/home/tong/projects/hxmpp/doc/hxmpp.png"
   inkscape:export-xdpi="300"
   inkscape:export-ydpi="300"
   sodipodi:nodetypes="cccccccccccccc" /><g
   id="g2427"
   transform="translate(-0.94501,-327.04803)"
   inkscape:export-filename="/home/tong/projects/hxmpp/doc/hxmpp.png"
   inkscape:export-xdpi="300"
   inkscape:export-ydpi="300"
   style="fill:#000000;fill-opacity:1;stroke:none">
	<path
   d="M 368.689,626.408 L 344.281,583.633 L 344.153,626.409 L 295.725,626.409 L 295.725,540.858 L 319.747,540.858 L 295.596,498.08 L 412.234,498.08 L 484.941,626.409 L 368.689,626.409 L 368.689,626.408 z"
   id="path2429"
   style="fill:#000000;stroke:none;stroke-width:6;fill-opacity:1"
   sodipodi:nodetypes="ccccccccccc" />
	<line
   x1="377.862"
   y1="539.44397"
   x2="427.43301"
   y2="626.20502"
   id="line2431"
   style="fill:#000000;stroke:none;stroke-width:6;fill-opacity:1" />
</g><g
   id="g2433"
   transform="translate(-0.94501,-327.04803)"
   inkscape:export-filename="/home/tong/projects/hxmpp/doc/hxmpp.png"
   inkscape:export-xdpi="300"
   inkscape:export-ydpi="300"
   style="fill:#000000;fill-opacity:1;stroke:none">
	<polygon
   points="561.214,544.535 534.672,498.08 412.444,498.08 485.277,626.326 540.047,626.278 510.215,573.367 561.214,544.535 "
   id="polygon2435"
   style="fill:#000000;stroke:none;stroke-width:6;fill-opacity:1" />
	<line
   x1="527.37402"
   y1="563.448"
   x2="513.599"
   y2="539.62598"
   id="line2437"
   style="fill:#000000;stroke:none;stroke-width:6;fill-opacity:1" />
</g><g
   id="g2439"
   transform="translate(-0.94501,-327.04803)"
   inkscape:export-filename="/home/tong/projects/hxmpp/doc/hxmpp.png"
   inkscape:export-xdpi="300"
   inkscape:export-ydpi="300"
   style="fill:#000000;fill-opacity:1;stroke:none">
	<polygon
   points="683.734,544.535 657.192,498.08 534.963,498.08 607.796,626.326 662.567,626.278 632.735,573.367 683.734,544.535 "
   id="polygon2441"
   style="fill:#000000;stroke:none;stroke-width:6;fill-opacity:1" />
	<line
   x1="649.89301"
   y1="563.448"
   x2="636.11902"
   y2="539.62598"
   id="line2443"
   style="fill:#000000;stroke:none;stroke-width:6;fill-opacity:1" />
</g><path
   d="M 150.93998,449.35999 L 96.051986,449.35999 L 71.68499,406.70998 L 71.68499,449.35999 L 22.99999,449.35999 L 22.99999,320.90697 L 71.68499,320.90697 L 71.68499,363.80998 L 102.64398,363.80998 L 102.64398,320.90697 L 150.93998,320.90697 L 150.93998,449.35999 z"
   id="path2445"
   style="fill:#ffffff;stroke:#000000;stroke-width:6;fill-opacity:1"
   inkscape:export-filename="/home/tong/projects/hxmpp/doc/hxmpp.png"
   inkscape:export-xdpi="300"
   inkscape:export-ydpi="300" /><path
   d="M 231.66598,449.10499 L 223.18898,434.59098 L 214.70898,449.10499 L 159.47598,449.10499 L 195.18298,385.00498 L 158.96098,321.03597 L 214.58298,321.03597 L 222.93098,335.80697 L 231.41098,321.03597 L 287.02899,321.03597 L 250.93298,385.00498 L 287.15799,449.10499 L 231.66598,449.10499 L 231.66598,449.10499 z"
   id="path2447"
   style="fill:#ffffff;stroke:#000000;stroke-width:6;fill-opacity:1"
   inkscape:export-filename="/home/tong/projects/hxmpp/doc/hxmpp.png"
   inkscape:export-xdpi="300"
   inkscape:export-ydpi="300"
   sodipodi:nodetypes="cccccccccccccc" /><g
   id="g2449"
   transform="translate(-0.9450097,-177.04802)"
   inkscape:export-filename="/home/tong/projects/hxmpp/doc/hxmpp.png"
   inkscape:export-xdpi="300"
   inkscape:export-ydpi="300"
   style="fill:#ffffff;fill-opacity:1">
	<path
   d="M 368.689,626.408 L 344.281,583.633 L 344.153,626.409 L 295.725,626.409 L 295.725,540.858 L 319.747,540.858 L 295.596,498.08 L 412.234,498.08 L 484.941,626.409 L 368.689,626.409 L 368.689,626.408 z"
   id="path2451"
   style="fill:#ffffff;stroke:#000000;stroke-width:6;fill-opacity:1"
   sodipodi:nodetypes="ccccccccccc" />
	<line
   x1="377.862"
   y1="539.44397"
   x2="427.43301"
   y2="626.20502"
   id="line2453"
   style="fill:#ffffff;stroke:#000000;stroke-width:6;fill-opacity:1" />
</g><g
   id="g2455"
   transform="translate(-0.9450097,-177.04802)"
   inkscape:export-filename="/home/tong/projects/hxmpp/doc/hxmpp.png"
   inkscape:export-xdpi="300"
   inkscape:export-ydpi="300"
   style="fill:#ffffff;fill-opacity:1">
	<polygon
   points="561.214,544.535 534.672,498.08 412.444,498.08 485.277,626.326 540.047,626.278 510.215,573.367 561.214,544.535 "
   id="polygon2457"
   style="fill:#ffffff;stroke:#000000;stroke-width:6;fill-opacity:1" />
	<line
   x1="527.37402"
   y1="563.448"
   x2="513.599"
   y2="539.62598"
   id="line2459"
   style="fill:#ffffff;stroke:#000000;stroke-width:6;fill-opacity:1" />
</g><g
   id="g2461"
   transform="translate(-0.9450097,-177.04802)"
   inkscape:export-filename="/home/tong/projects/hxmpp/doc/hxmpp.png"
   inkscape:export-xdpi="300"
   inkscape:export-ydpi="300"
   style="fill:#ffffff;fill-opacity:1">
	<polygon
   points="683.734,544.535 657.192,498.08 534.963,498.08 607.796,626.326 662.567,626.278 632.735,573.367 683.734,544.535 "
   id="polygon2463"
   style="fill:#ffffff;stroke:#000000;stroke-width:6;fill-opacity:1" />
	<line
   x1="649.89301"
   y1="563.448"
   x2="636.11902"
   y2="539.62598"
   id="line2465"
   style="fill:#ffffff;stroke:#000000;stroke-width:6;fill-opacity:1" />
</g></svg>